<svg width="18" height="18" viewBox="0 0 18 18" fill="none" xmlns="http://www.w3.org/2000/svg">
<path d="M9 4.5C9.26465 4.49872 9.52426 4.42743 9.75246 4.29339C9.98066 4.15934 10.1693 3.96731 10.2993 3.73678C10.4293 3.50624 10.496 3.24542 10.4926 2.98079C10.4892 2.71615 10.4159 2.45712 10.28 2.23L9 0L7.72 2.23C7.58 2.45 7.5 2.71 7.5 3C7.5 3.83 8.18 4.5 9 4.5ZM12.45 12L11.65 11.19L10.84 11.99C9.86 12.97 8.15 12.97 7.17 11.99L6.37 11.19L5.55 11.99C5.06 12.48 4.41 12.75 3.72 12.75C3.17 12.75 2.42 12.58 2 12.29V15C2 16.1 2.9 17 4 17H14C14.5304 17 15.0391 16.7893 15.4142 16.4142C15.7893 16.0391 16 15.5304 16 15V12.3C15.58 12.58 14.83 12.75 14.28 12.75C13.59 12.75 12.94 12.48 12.45 11.99V12ZM13.75 7H10V5H8V7H4.25C3 7 2 8 2 9.25V10.15C2 10.96 2.91 11.62 3.72 11.62C4.11 11.62 4.49 11.48 4.75 11.2L6.36 9.6L7.96 11.2C8.23946 11.4689 8.61219 11.6191 9 11.6191C9.38781 11.6191 9.76054 11.4689 10.04 11.2L11.64 9.6L13.24 11.2C13.52 11.48 13.88 11.63 14.27 11.63C15.08 11.63 16 10.96 16 10.15V9.25C16 8.01 15 7 13.75 7Z" fill="black"/>
</svg>
