<svg width="18" height="18" viewBox="0 0 18 18" fill="none" xmlns="http://www.w3.org/2000/svg">
<path d="M9.00009 1C7.10019 0.999577 5.26215 1.67533 3.81497 2.90631C2.3678 4.13729 1.40596 5.84313 1.10162 7.7185C0.797275 9.59386 1.1703 11.5163 2.15392 13.1418C3.13755 14.7672 4.66756 15.9896 6.47009 16.59C6.87009 16.66 7.02009 16.42 7.02009 16.21L7.01009 14.72C5.00009 15.09 4.48009 14.23 4.32009 13.78C4.23009 13.55 3.84009 12.84 3.50009 12.65C3.22009 12.5 2.82009 12.13 3.49009 12.12C4.12009 12.11 4.57009 12.7 4.72009 12.94C5.44009 14.15 6.59009 13.81 7.05009 13.6C7.12009 13.08 7.33009 12.73 7.56009 12.53C5.78009 12.33 3.92009 11.64 3.92009 8.58C3.92009 7.71 4.23009 6.99 4.74009 6.43C4.66009 6.23 4.38009 5.41 4.82009 4.31C4.82009 4.31 5.49009 4.1 7.02009 5.13C8.32828 4.76383 9.7119 4.76383 11.0201 5.13C12.5501 4.09 13.2201 4.31 13.2201 4.31C13.6601 5.41 13.3801 6.23 13.3001 6.43C13.8101 6.99 14.1201 7.7 14.1201 8.58C14.1201 11.65 12.2501 12.33 10.4701 12.53C10.7601 12.78 11.0101 13.26 11.0101 14.01L11.0001 16.21C11.0001 16.42 11.1501 16.67 11.5501 16.59C13.342 15.978 14.8592 14.7509 15.8324 13.1266C16.8056 11.5022 17.1718 9.58565 16.8662 7.71692C16.5605 5.84819 15.6027 4.14817 14.1627 2.91854C12.7227 1.68891 10.8936 1.00919 9.00009 1Z" fill="#010101"/>
</svg>
