<svg width="18" height="18" viewBox="0 0 18 18" fill="none" xmlns="http://www.w3.org/2000/svg">
<path d="M16.51 7.99999H8.97998V11H13.28C13.1 12 12.54 12.48 11.68 13.04V15.05H14.28C15.0664 14.2913 15.6847 13.3758 16.0947 12.3629C16.5047 11.3499 16.6973 10.2621 16.66 9.16999C16.66 8.59999 16.61 8.50999 16.51 7.98999V7.99999Z" fill="#4285F4"/>
<path d="M8.98008 17C11.1401 17 12.9501 16.28 14.2801 15.06L11.6801 13.06C11.0627 13.4612 10.3614 13.715 9.63027 13.8017C8.89916 13.8885 8.15789 13.8059 7.4638 13.5604C6.76972 13.3148 6.14141 12.9129 5.6275 12.3857C5.11358 11.8585 4.72783 11.2201 4.50008 10.52H1.83008V12.59C2.49579 13.9157 3.51702 15.0303 4.77965 15.809C6.04229 16.5878 7.49659 17.0002 8.98008 17Z" fill="#34A853"/>
<path d="M4.49999 10.52C4.17063 9.5334 4.17063 8.46654 4.49999 7.47997V5.40997H1.82999C1.27058 6.52401 0.979248 7.75337 0.979248 8.99997C0.979248 10.2466 1.27058 11.4759 1.82999 12.59L4.49999 10.52Z" fill="#FBBC05"/>
<path d="M8.98008 4.18001C10.1501 4.18001 11.2101 4.58001 12.0401 5.38001L14.3401 3.08001C13.4275 2.25348 12.3365 1.64872 11.152 1.31284C9.96747 0.97696 8.72141 0.919015 7.51083 1.14352C6.30025 1.36802 5.15782 1.86892 4.1725 2.6072C3.18719 3.34548 2.38557 4.30123 1.83008 5.40001L4.50008 7.49001C4.80763 6.54036 5.40535 5.71113 6.20906 5.11911C7.01276 4.5271 7.98194 4.20214 8.98008 4.19001V4.18001Z" fill="#EA4335"/>
</svg>
