<svg width="146" height="30" viewBox="0 0 146 30" fill="none" xmlns="http://www.w3.org/2000/svg">
<path d="M21 27V19H24V30H0V19H3V27H21Z" fill="#BCBBBB"/>
<path d="M5.4 19.1L19 21.1L19.1 18.7L6 16L5.5 19L5.4 19.1ZM7.2 12.3L19.2 17.9L20.3 15.5L8.3 9.89999L7.2 12.3ZM10.6 6.39999L20.8 14.9L22.5 12.9L12.3 4.39999L10.6 6.39999ZM17.1 0.200012L15 1.79999L22.9 12.4L25 10.8L17.1 0.200012ZM5 25H19V22H5V25Z" fill="#F48024"/>
<path d="M34 18.9L32.3 18.7C31 18.7 30.5 18.1 30.5 17.2C30.5 16.2 31.2 15.4 32.8 15.4C33.8 15.4 34.8 15.7 35.4 16.2L36.4 15.2C35.4 14.5 34.2 14.2 32.8 14.2C30.6 14.2 29 15.3 29 17.2C29 18.9 30 19.8 32 20L33.8 20.1C35 20.2 35.5 20.7 35.5 21.7C35.5 22.9 34.5 23.5 32.9 23.5C31.6 23.5 30.5 23.2 29.7 22.4L28.7 23.4C29.9 24.4 31.2 24.7 32.9 24.7C35.4 24.7 37.1 23.6 37.1 21.7C36.9 19.7 35.6 19.1 33.9 18.9H34ZM46.7 14.3C45 14.3 44 14.6 43.1 15.7L44.1 16.7C44.7 15.8 45.3 15.5 46.7 15.5C48.5 15.5 49.3 16.3 49.3 17.7V18.7H46.2C43.9 18.7 42.6 19.9 42.6 21.7C42.6 22.4 42.9 23.2 43.4 23.7C44.1 24.5 44.8 24.7 46.3 24.7C46.8418 24.746 47.3872 24.681 47.903 24.509C48.4188 24.3371 48.8942 24.0618 49.3 23.7V24.7H50.8V17.7C50.7 15.4 49.4 14.3 46.7 14.3ZM49.3 21C49.3 21.9 49.1 22.4 48.8 22.7C48.1 23.3 47.3 23.4 46.5 23.4C44.8 23.4 44.2 22.8 44.2 21.7C44.2 20.5 44.9 19.9 46.5 19.9H49.4L49.3 21ZM56.5 15.6C57.5 15.6 58.1 15.9 58.9 16.8L59.9 15.8C58.8 14.7 57.9 14.3 56.5 14.3C53.9 14.3 51.9 16 51.9 19.6C51.9 23 53.9 24.8 56.5 24.8C57.9 24.8 58.8 24.5 59.8 23.3L58.8 22.3C58 23.3 57.4 23.5 56.5 23.5C56.0426 23.5118 55.5885 23.4189 55.1725 23.2282C54.7565 23.0376 54.3897 22.7543 54.1 22.4C53.6 21.7 53.4 20.9 53.4 19.6C53.4 18.3 53.6 17.5 54.1 16.8C54.7 16 55.6 15.6 56.5 15.6ZM69.4 14.4H67.6L63 18.9V9.79999H61.4V24.6H63V20.8L64.8 19L68.3 24.6H70L65.8 17.9L69.3 14.4H69.4ZM76.4 14.1C74.9 14.1 73.8 14.7 73.1 15.4C72.1 16.4 71.9 17.7 71.9 19.6C71.9 21.5 72.2 22.7 73.1 23.6C73.8 24.4 74.9 25 76.4 25C77.9 25 79.1 24.5 79.7 23.7C80.7 22.7 80.9 21.5 80.9 19.6C80.9 17.6 80.6 16.4 79.7 15.4C79.1 14.7 78 14.1 76.4 14.1ZM77.7 22.1C77.4 22.4 77 22.5 76.4 22.5C75.8 22.5 75.4 22.4 75.2 22.1C74.6 21.5 74.6 20.5 74.6 19.5C74.6 18.3 74.6 17.5 75.2 16.9C75.4 16.6 75.8 16.4 76.4 16.4C77 16.4 77.4 16.6 77.7 16.9C78.2 17.5 78.2 18.3 78.2 19.5C78.3 20.6 78.2 21.5 77.7 22.1ZM88 14.2L85.9 20.8L83.7 14.2H80.9L84.9 24.8H86.9L90.9 14.2H88ZM95.3 14.1C92.5 14.1 90.7 16.1 90.7 19.6C90.7 23.9 93.1 25 95.6 25C97.6 25 98.6 24.5 99.6 23.4L98 22C97.7006 22.336 97.3294 22.6004 96.914 22.7735C96.4985 22.9466 96.0494 23.024 95.6 23C94.1 23 93.3 22 93.3 20.5H99.9V19.4C99.9 16.4 98.3 14.2 95.3 14.2V14.1ZM93.3 18.5C93.3 18 93.3 17.7 93.6 17.4C93.9 16.7 94.4 16.2 95.4 16.2C95.7835 16.2064 96.1571 16.3229 96.4763 16.5356C96.7954 16.7484 97.0466 17.0485 97.2 17.4C97.4 17.7 97.4 18 97.5 18.5H93.3ZM103.8 15.3V14.2H101.3V24.8H103.9V18.4C103.9 17.1 104.8 16.5 105.7 16.5C106.3 16.5 106.7 16.7 107.1 17.2L109.1 15.2C108.3 14.4 107.7 14.2 106.6 14.2C105.4 14.1 104.4 14.6 103.8 15.2V15.3ZM109.2 13V24.8H111.9V16.4H113.9V14.4H111.9V13.2C111.9 12.7 112.2 12.2 112.9 12.2H113.9V10.1H112.4C110.2 10.1 109.2 11.6 109.2 13.1V13ZM125.4 14.1C123.9 14.1 122.8 14.7 122.2 15.4C121.2 16.4 120.9 17.7 120.9 19.6C120.9 21.5 121.2 22.7 122.2 23.6C122.8 24.4 123.9 25 125.4 25C127 25 128.1 24.5 128.7 23.7C129.7 22.7 129.9 21.5 129.9 19.6C129.9 17.6 129.6 16.4 128.7 15.4C128.1 14.7 127 14.1 125.4 14.1ZM126.7 22.1C126.4 22.4 126 22.5 125.4 22.5C124.8 22.5 124.4 22.4 124.2 22.1C123.6 21.5 123.6 20.5 123.6 19.5C123.6 18.3 123.7 17.5 124.2 16.9C124.5 16.6 124.8 16.4 125.4 16.4C126 16.4 126.4 16.6 126.7 16.9C127.2 17.5 127.2 18.3 127.2 19.5C127.2 20.6 127.2 21.5 126.7 22.1ZM142.5 14.2L140.8 20.8L138.6 14.2H136.6L134.4 20.8L132.7 14.2H130L133.3 24.8H135.5L137.7 18.1L139.9 24.8H142.1L145.4 14.2H142.6H142.5ZM117.9 21.6V10H115.2V21.8C115.2 23.3 116.2 24.8 118.3 24.8H119.9V22.6H118.9C118.2 22.6 117.9 22.3 117.9 21.6ZM41 16L42.4 14.7H39.4V11.3H38V22C38 23.5 38.9 24.7 40.6 24.7H41.6V23.5H40.9C39.9 23.5 39.5 22.9 39.5 22V16H41Z" fill="#222426"/>
</svg>
