<svg width="18" height="18" viewBox="0 0 18 18" fill="none" xmlns="http://www.w3.org/2000/svg">
<g clip-path="url(#clip0_107_2)">
<path d="M18 16.5L12.86 11.32H12.51C13.6104 9.91638 14.1336 8.14566 13.9726 6.36939C13.8116 4.59311 12.9787 2.94527 11.6439 1.76234C10.3091 0.579406 8.57306 -0.0493976 6.79032 0.00432355C5.00758 0.0580447 3.31258 0.790239 2.05142 2.0514C0.790254 3.31256 0.0580599 5.00756 0.00433881 6.79031C-0.0493823 8.57305 0.579422 10.3091 1.76236 11.6439C2.94529 12.9787 4.59313 13.8116 6.3694 13.9726C8.14567 14.1335 9.9164 13.6104 11.32 12.51V12.86L16.5 18L18 16.5ZM12 7C12 8.32609 11.4732 9.59785 10.5356 10.5355C9.59787 11.4732 8.3261 12 7.00002 12C5.67394 12 4.40217 11.4732 3.46448 10.5355C2.5268 9.59785 2.00002 8.32609 2.00002 7C2.00002 5.67392 2.5268 4.40215 3.46448 3.46447C4.40217 2.52679 5.67394 2 7.00002 2C8.3261 2 9.59787 2.52679 10.5356 3.46447C11.4732 4.40215 12 5.67392 12 7Z" fill="#868C93"/>
</g>
<defs>
<clipPath id="clip0_107_2">
<rect width="18" height="18" fill="white"/>
</clipPath>
</defs>
</svg>
